# Blender 4.4.3
# www.blender.org
o Car
v 1.000000 0.000000 1.000000
v 0.715026 1.909844 0.352591
v 0.797897 1.078817 -0.968473
v 1.070814 0.466494 -1.869060
v 0.838641 0.466495 -2.000000
v 0.629424 1.921183 -0.631527
v 0.000000 1.000000 -1.000000
v 0.000000 0.000000 1.000000
v 0.000000 0.800000 1.000000
v 0.000000 0.000000 2.100000
v 0.000000 0.500000 2.000000
v 0.000000 0.000000 -1.900000
v 0.000000 0.900000 -2.000000
v 0.000000 2.000000 -0.600000
v 0.000000 2.000000 0.300000
v 0.768251 0.000000 -1.900000
v 1.000000 0.000000 -1.869057
v 0.900000 0.913093 -1.869065
v 0.768251 0.900000 -2.000000
v 0.000000 0.466499 -2.000000
v 0.838641 0.366495 -2.100000
v 1.070814 0.366494 -1.969060
v 0.868251 0.150000 -2.100000
v 0.000000 0.366499 -2.100000
v 0.000000 0.150000 -2.100000
v 1.000000 0.150000 -1.969057
v 0.884928 1.073651 -0.877251
v 0.000000 1.078817 -0.968473
v 0.714948 1.914478 -0.540814
v 0.000000 1.921183 -0.631527
v 0.921823 1.000000 -1.000000
v 0.784785 0.886219 0.949706
v 0.650000 2.000000 -0.600000
v 0.613525 1.913781 0.350294
v 0.900000 0.800000 1.000000
v 0.650000 2.000000 0.300000
v 0.000000 0.886219 0.949706
v 0.000000 1.913781 0.350294
v 0.884624 1.039951 -0.540813
v 0.900000 0.000000 1.929558
v 0.726183 0.000000 2.100000
v 0.726183 0.500000 2.000000
v 0.900000 0.551044 1.829852
v 0.947403 0.954081 -0.540813
v 1.000000 0.000000 -0.540807
v 1.066684 0.166527 1.000000
v 0.951630 0.166542 1.829700
v 1.072067 0.243264 -0.540809
v 0.772874 0.166543 2.000000
v 0.000000 0.166550 2.000000
v 0.650000 2.000000 -0.540814
v 0.717503 1.912486 -0.635006
v 0.883135 1.084324 -0.966270
v 1.000000 0.000000 -1.580000
v 0.893913 0.507250 -0.577862
v 1.072621 0.287428 -0.739056
v 1.000000 0.000000 -0.620000
v 1.000000 0.100000 -0.540807
v 0.000000 0.509832 -0.578473
v 0.000000 0.578817 -0.778473
v 1.043252 0.166530 1.168979
v 0.000000 0.100000 1.000000
v 0.979181 0.166538 1.631018
v 0.989242 0.000000 1.100000
v 0.924695 0.000000 1.700000
v 0.926216 0.576234 -0.777862
v 0.000000 0.100000 -0.540807
v 0.678958 1.912316 0.289905
v 1.072423 0.389783 -1.317804
v 1.045153 0.480000 -1.100000
v 0.782811 0.800000 0.900000
v 0.000000 1.920582 -0.551748
v 1.000000 0.100000 1.000000
v 1.057784 0.339411 -1.439411
v 0.628129 1.920580 -0.551568
v 1.061756 0.339411 -0.760589
v 0.969803 0.212132 1.612132
v 1.028633 0.212132 1.187868
v 0.976098 0.300000 1.400000
v 0.000000 1.914257 0.287148
v 0.794624 1.039951 -0.540813
v 0.000000 0.000000 -0.620000
v 0.796413 1.076234 -0.877862
v 0.000000 1.078817 -0.878473
v 0.000000 0.000000 1.700000
v 0.614548 1.914257 0.287126
v 0.000000 0.520000 0.740000
v 0.000000 0.800000 0.900000
v 0.000000 0.000000 1.100000
v 0.000000 0.212132 1.612132
v 0.960000 0.520000 0.740000
v 0.960000 0.400000 1.000000
v 0.000000 0.339411 -1.439411
v 0.880000 0.800000 0.900000
v 0.000000 0.480000 -1.100000
v 0.880000 0.800000 0.700000
v 0.000000 0.000000 -1.580000
v 0.000000 0.800000 0.700000
v 0.000000 0.339411 -0.760589
v 0.000000 0.400000 1.000000
v 0.000000 0.212132 1.187868
v 0.000000 0.300000 1.400000
v -1.000000 0.000000 1.000000
v -0.715026 1.909844 0.352591
v -0.797897 1.078817 -0.968473
v -1.070814 0.466494 -1.869060
v -0.838641 0.466495 -2.000000
v -0.629424 1.921183 -0.631527
v -0.768251 0.000000 -1.900000
v -1.000000 0.000000 -1.869057
v -0.900000 0.913093 -1.869065
v -0.768251 0.900000 -2.000000
v -0.838641 0.366495 -2.100000
v -1.070814 0.366494 -1.969060
v -0.868251 0.150000 -2.100000
v -1.000000 0.150000 -1.969057
v -0.884928 1.073651 -0.877251
v -0.714948 1.914478 -0.540814
v -0.921823 1.000000 -1.000000
v -0.784785 0.886219 0.949706
v -0.650000 2.000000 -0.600000
v -0.613525 1.913781 0.350294
v -0.900000 0.800000 1.000000
v -0.650000 2.000000 0.300000
v -0.884624 1.039951 -0.540813
v -0.900000 0.000000 1.929558
v -0.726183 0.000000 2.100000
v -0.726183 0.500000 2.000000
v -0.900000 0.551044 1.829852
v -0.947403 0.954081 -0.540813
v -1.000000 0.000000 -0.540807
v -1.066684 0.166527 1.000000
v -0.951630 0.166542 1.829700
v -1.072067 0.243264 -0.540809
v -0.772874 0.166543 2.000000
v -0.650000 2.000000 -0.540814
v -0.717503 1.912486 -0.635006
v -0.883135 1.084324 -0.966270
v -1.000000 0.000000 -1.580000
v -0.893913 0.507250 -0.577862
v -1.072621 0.287428 -0.739056
v -1.000000 0.000000 -0.620000
v -1.000000 0.100000 -0.540807
v -1.043252 0.166530 1.168979
v -0.979181 0.166538 1.631018
v -0.989242 0.000000 1.100000
v -0.924695 0.000000 1.700000
v -0.926216 0.576234 -0.777862
v -0.678958 1.912316 0.289905
v -1.072423 0.389783 -1.317804
v -1.045153 0.480000 -1.100000
v -0.782811 0.800000 0.900000
v -1.000000 0.100000 1.000000
v -1.057784 0.339411 -1.439411
v -0.628129 1.920580 -0.551568
v -1.061756 0.339411 -0.760589
v -0.969803 0.212132 1.612132
v -1.028633 0.212132 1.187868
v -0.976098 0.300000 1.400000
v -0.794624 1.039951 -0.540813
v -0.796413 1.076234 -0.877862
v -0.614548 1.914257 0.287126
v -0.960000 0.520000 0.740000
v -0.960000 0.400000 1.000000
v -0.880000 0.800000 0.900000
v -0.880000 0.800000 0.700000
vn -0.0000 -1.0000 -0.0000
vn 0.9616 -0.2714 -0.0413
vn -0.0000 0.9578 0.2873
vn 0.9619 -0.2470 0.1174
vn 0.9256 -0.3598 0.1177
vn 0.9577 0.2875 -0.0123
vn -0.0000 -0.0000 -1.0000
vn -0.0000 1.0000 -0.0000
vn -0.0000 0.9950 -0.0995
vn 0.5731 0.1571 -0.8043
vn -0.0000 -0.8000 -0.6000
vn 0.9868 -0.1617 -0.0121
vn 0.5832 -0.0555 -0.8104
vn 0.2807 -0.7238 -0.6303
vn 0.3704 0.6568 -0.6568
vn -0.0000 0.7071 -0.7071
vn 0.9779 -0.2028 -0.0507
vn -0.0000 0.3714 -0.9285
vn 0.8562 0.5161 0.0245
vn 0.9813 0.1921 0.0132
vn -0.0000 0.5039 0.8638
vn 0.7964 0.6048 -0.0000
vn 0.6845 0.0936 0.7229
vn -0.0000 0.5148 0.8573
vn 0.9801 0.1983 0.0051
vn 0.9743 0.2041 0.0952
vn -0.0000 -0.0000 1.0000
vn 0.6778 0.2207 0.7013
vn 0.7935 0.6086 0.0087
vn 0.9130 0.4068 0.0304
vn -0.0000 -0.3827 0.9239
vn -0.0000 -0.9239 0.3827
vn -0.0000 -0.9239 -0.3827
vn -0.0000 -0.3827 -0.9239
vn -0.0000 -0.1414 -0.9899
vn -0.0000 -0.9080 -0.4191
vn 1.0000 -0.0000 -0.0000
vn 0.9685 0.2408 0.0628
vn 0.9701 0.1455 -0.1940
vn 0.0016 0.9999 0.0143
vn 0.0140 0.9945 0.1034
vn -0.0000 -1.0000 -0.0075
vn -0.9819 -0.1884 -0.0195
vn -0.0785 -0.3785 0.9223
vn -0.1291 -0.0981 0.9868
vn 0.9444 -0.3287 0.0064
vn -0.0000 0.4995 -0.8663
vn -0.9903 -0.1065 0.0892
vn 0.0466 0.1294 -0.9905
vn 0.9451 -0.0203 -0.3260
vn 0.8250 0.3256 -0.4619
vn 0.0093 -0.4802 -0.8771
vn -0.0001 0.1961 0.9806
vn 0.0025 0.9453 0.3262
vn -0.0002 0.0910 0.9958
vn -0.9695 -0.2215 -0.1050
vn -0.8906 -0.1946 0.4111
vn -0.9616 -0.2714 -0.0413
vn -0.9619 -0.2470 0.1174
vn -0.9256 -0.3598 0.1177
vn -0.9577 0.2875 -0.0123
vn -0.5731 0.1571 -0.8043
vn -0.9868 -0.1617 -0.0121
vn -0.5832 -0.0555 -0.8104
vn -0.2807 -0.7238 -0.6303
vn -0.3704 0.6568 -0.6568
vn -0.9779 -0.2028 -0.0507
vn -0.8562 0.5161 0.0245
vn -0.9813 0.1921 0.0132
vn -0.7964 0.6048 -0.0000
vn -0.6845 0.0936 0.7229
vn -0.9801 0.1983 0.0051
vn -0.9743 0.2041 0.0952
vn -0.6778 0.2207 0.7013
vn -0.7935 0.6086 0.0087
vn -0.9130 0.4068 0.0304
vn -1.0000 -0.0000 -0.0000
vn -0.9685 0.2408 0.0628
vn -0.9701 0.1455 -0.1940
vn -0.0016 0.9999 0.0143
vn -0.0140 0.9945 0.1034
vn 0.9819 -0.1884 -0.0195
vn 0.0785 -0.3785 0.9223
vn 0.1291 -0.0981 0.9868
vn -0.9444 -0.3287 0.0064
vn 0.9903 -0.1065 0.0892
vn -0.0466 0.1294 -0.9905
vn -0.9451 -0.0203 -0.3260
vn -0.8250 0.3256 -0.4619
vn -0.0093 -0.4802 -0.8771
vn 0.0001 0.1961 0.9806
vn -0.0025 0.9453 0.3262
vn 0.0002 0.0910 0.9958
vn 0.9695 -0.2215 -0.1050
vn 0.8906 -0.1946 0.4111
vt 0.098998 0.186056
vt 0.098998 0.198793
vt 0.068418 0.198793
vt 0.059194 0.197562
vt 0.059194 0.186056
vt 0.266605 0.554775
vt 0.266954 0.500023
vt 0.284044 0.500132
vt 0.309401 0.564243
vt 0.059194 0.124413
vt 0.059194 0.063083
vt 0.098998 0.063083
vt 0.098998 0.127565
vt 0.059194 0.127565
vt 0.192372 0.004388
vt 0.418818 0.004388
vt 0.418818 0.239618
vt 0.145942 0.239618
vt 0.145942 0.049818
vt 0.808804 0.523561
vt 0.789521 0.485999
vt 0.838229 0.489521
vt 0.851226 0.527444
vt 0.967067 0.499594
vt 0.988553 0.501259
vt 0.987110 0.539670
vt 0.950698 0.536442
vt 0.434313 0.586142
vt 0.553372 0.601996
vt 0.553141 0.705183
vt 0.365313 0.721569
vt 0.387233 0.606302
vt 0.010741 0.580681
vt 0.009790 0.530365
vt 0.187505 0.530041
vt 0.191153 0.571696
vt 0.974284 0.008121
vt 0.993621 0.008121
vt 0.993621 0.220482
vt 0.699582 0.220482
vt 0.699582 0.008121
vt 0.425689 0.004023
vt 0.653967 0.009576
vt 0.688360 0.043097
vt 0.688360 0.238568
vt 0.425689 0.238568
vt 0.098998 0.059103
vt 0.059622 0.059103
vt 0.062191 0.022545
vt 0.063174 0.013408
vt 0.070093 0.006624
vt 0.098998 0.006624
vt 0.098998 0.022545
vt 0.607999 0.620018
vt 0.592453 0.713512
vt 0.189896 0.628091
vt 0.013945 0.637939
vt 0.490634 0.500392
vt 0.553013 0.500173
vt 0.460544 0.574794
vt 0.779463 0.677936
vt 0.749526 0.766567
vt 0.234220 0.531565
vt 0.228292 0.575517
vt 0.244656 0.612115
vt 0.195269 0.499088
vt 0.256954 0.511727
vt 0.009790 0.499087
vt 0.041326 0.379715
vt 0.126394 0.379715
vt 0.139607 0.370664
vt 0.041326 0.370664
vt 0.108432 0.476443
vt 0.041326 0.476443
vt 0.041326 0.485493
vt 0.110626 0.485493
vt 0.135482 0.380347
vt 0.102719 0.338125
vt 0.039248 0.312886
vt 0.029737 0.332155
vt 0.117474 0.364088
vt 0.120126 0.152796
vt 0.119757 0.344277
vt 0.136894 0.161813
vt 0.036222 0.397425
vt 0.027296 0.397024
vt 0.033014 0.406203
vt 0.021161 0.292812
vt 0.090175 0.292811
vt 0.090175 0.284034
vt 0.011029 0.284034
vt 0.090175 0.397425
vt 0.090175 0.406203
vt 0.140473 0.138668
vt 0.129760 0.133358
vt 0.746659 0.593966
vt 0.754730 0.520336
vt 0.799082 0.606106
vt 0.738101 0.479348
vt 0.585266 0.535065
vt 0.581564 0.493188
vt 0.266186 0.710513
vt 0.313998 0.575724
vt 0.969835 0.678961
vt 0.854029 0.537881
vt 0.897278 0.561377
vt 0.945384 0.546108
vt 0.591033 0.606525
vt 0.117823 0.475444
vt 0.098998 0.049963
vt 0.057473 0.051928
vt 0.058054 0.049963
vt 0.060145 0.040824
vt 0.098998 0.040824
vt 0.060396 0.031685
vt 0.098998 0.031685
vt 0.060023 0.029720
vt 0.497441 0.811071
vt 0.461711 0.828434
vt 0.461711 0.811071
vt 0.547971 0.796779
vt 0.547971 0.968283
vt 0.497441 0.968283
vt 0.056894 0.171433
vt 0.098998 0.171433
vt 0.056311 0.166194
vt 0.057397 0.156811
vt 0.098998 0.156811
vt 0.056736 0.142188
vt 0.098998 0.142188
vt 0.056303 0.139948
vt 0.599128 0.796779
vt 0.599128 0.968283
vt 0.828042 0.938711
vt 0.984740 0.938711
vt 0.984740 0.985721
vt 0.834310 0.985721
vt 0.015319 0.034613
vt 0.028328 0.010819
vt 0.026927 0.025626
vt 0.828042 0.697269
vt 0.984740 0.697269
vt 0.035235 0.238136
vt 0.035235 0.009109
vt 0.051307 0.009109
vt 0.051307 0.238136
vt 0.492486 0.775686
vt 0.562064 0.747601
vt 0.029129 0.070567
vt 0.033133 0.130574
vt 0.490497 0.757576
vt 0.029087 0.119811
vt 0.013682 0.100700
vt 0.010891 0.086062
vt 0.140037 0.954252
vt 0.224237 0.954466
vt 0.224261 0.944968
vt 0.140218 0.944686
vt 0.139578 0.124194
vt 0.104092 0.127919
vt 0.103033 0.118634
vt 0.138595 0.114748
vt 0.661238 0.933672
vt 0.666861 0.921304
vt 0.793007 0.977867
vt 0.781401 0.988300
vt 0.797994 0.779492
vt 0.789048 0.766325
vt 0.784952 0.624811
vt 0.797694 0.629983
vt 0.688229 0.794677
vt 0.686646 0.784786
vt 0.810892 0.627807
vt 0.813043 0.772111
vt 0.811503 0.788083
vt 0.813881 0.972718
vt 0.871545 0.477537
vt 0.876693 0.469644
vt 0.939552 0.508889
vt 0.934563 0.516881
vt 0.461711 0.968283
vt 0.711722 0.462503
vt 0.719109 0.469770
vt 0.804749 0.987226
vt 0.717446 0.454340
vt 0.722207 0.446721
vt 0.885530 0.445428
vt 0.878984 0.456463
vt 0.815762 0.995087
vt 0.224262 0.891160
vt 0.126521 0.890878
vt 0.224292 0.868834
vt 0.129960 0.868557
vt 0.224292 0.825403
vt 0.118765 0.825403
vt 0.113231 0.064054
vt 0.134859 0.057554
vt 0.139578 0.013222
vt 0.029194 0.227080
vt 0.021653 0.241270
vt 0.007408 0.243593
vt 0.192372 0.474849
vt 0.145942 0.429419
vt 0.418818 0.474849
vt 0.974284 0.432843
vt 0.699582 0.432843
vt 0.993621 0.432843
vt 0.425689 0.473112
vt 0.688360 0.434038
vt 0.653967 0.467560
s 0
f 97/1/1 12/2/1 16/3/1 17/4/1 54/5/1
f 48/6/2 45/7/2 57/8/2 56/9/2
f 45/10/1 1/11/1 8/12/1 82/13/1 57/14/1
f 43/15/3 35/16/3 9/17/3 11/18/3 42/19/3
f 47/20/4 40/21/4 65/22/4 63/23/4
f 64/24/5 1/25/5 46/26/5 61/27/5
f 69/28/6 4/29/6 18/30/6 31/31/6 70/32/6
f 25/33/7 24/34/7 21/35/7 23/36/7
f 51/37/8 33/38/8 14/39/8 15/40/8 36/41/8
f 31/42/9 18/43/9 19/44/9 13/45/9 7/46/9
f 89/47/1 8/12/1 1/11/1 64/48/1
f 65/49/1 40/50/1 41/51/1 10/52/1 85/53/1
f 18/30/10 4/29/10 5/54/10 19/55/10
f 16/56/11 12/57/11 25/33/11 23/36/11
f 54/58/12 17/59/12 4/29/12 69/28/12 74/60/12
f 5/54/7 20/61/7 13/62/7 19/55/7
f 21/35/13 22/63/13 26/64/13 23/36/13
f 17/65/14 16/56/14 23/36/14 26/64/14
f 5/66/15 4/67/15 22/63/15 21/35/15
f 20/68/16 5/66/16 21/35/16 24/34/16
f 4/67/17 17/65/17 26/64/17 22/63/17
f 28/69/18 3/70/18 31/71/18 7/72/18
f 6/73/18 30/74/18 14/75/18 33/76/18
f 3/70/18 53/77/18 31/71/18
f 27/78/19 39/79/19 44/80/19 31/81/19
f 29/82/20 27/78/20 53/83/20 52/84/20
f 34/85/21 2/86/21 36/87/21
f 32/88/21 37/89/21 9/90/21 35/91/21
f 38/92/21 34/85/21 36/87/21 15/93/21
f 33/94/22 51/95/22 29/82/22
f 42/96/23 49/97/23 47/20/23 43/98/23
f 41/99/24 49/97/24 50/100/24 10/101/24
f 70/32/25 31/31/25 44/102/25 48/6/25 56/9/25 76/103/25
f 61/27/26 46/26/26 35/104/26 43/98/26 47/20/26 63/23/26 77/105/26 79/106/26 78/107/26
f 50/100/27 49/97/27 42/96/27 11/108/27
f 47/20/28 49/97/28 41/99/28 40/21/28
f 2/86/21 34/85/21 32/88/21 35/91/21
f 52/84/29 33/94/29 29/82/29
f 52/109/18 6/73/18 33/76/18
f 53/77/18 3/70/18 6/73/18 52/109/18
f 53/83/30 27/78/30 31/81/30
f 101/110/31 89/47/31 64/48/31 61/111/31 78/112/31
f 79/113/32 102/114/32 101/110/32 78/112/32
f 77/115/33 90/116/33 102/114/33 79/113/33
f 63/117/34 65/49/34 85/53/34 90/116/34 77/115/34
f 96/118/8 71/119/8 94/120/8
f 91/121/35 87/122/35 98/123/35 96/118/35
f 97/1/31 54/5/31 74/124/31 93/125/31
f 69/126/32 70/127/32 95/128/32 93/125/32 74/124/32
f 70/127/33 76/129/33 99/130/33 95/128/33
f 56/131/34 57/14/34 82/13/34 99/130/34 76/129/34
f 92/132/36 100/133/36 87/122/36 91/121/36
f 73/134/7 62/135/7 100/136/7 92/137/7
f 46/138/7 1/139/7 73/140/7
f 73/134/8 58/141/8 67/142/8 62/135/8
f 1/143/37 45/144/37 58/145/37 73/146/37
f 91/121/38 96/118/38 94/147/38 92/148/38
f 73/140/7 92/149/7 46/138/7
f 46/138/7 92/149/7 35/150/7
f 94/147/39 35/151/39 92/148/39
f 48/152/27 58/153/27 45/154/27
f 3/155/40 28/156/40 84/157/40 83/158/40
f 39/159/41 27/160/41 83/161/41 81/162/41
f 38/163/42 80/164/42 86/165/42 34/166/42
f 75/167/43 6/168/43 3/169/43 83/170/43
f 86/165/42 80/164/42 72/171/42 75/167/42
f 75/167/42 72/171/42 30/172/42 6/168/42
f 75/167/44 83/170/44 27/173/44 29/174/44
f 51/175/45 75/167/45 29/174/45
f 36/176/46 86/165/46 75/167/46 51/175/46
f 32/177/47 71/178/47 88/179/47 37/180/47
f 71/119/8 96/118/8 98/123/8 88/181/8
f 86/182/48 71/178/48 32/177/48 34/183/48
f 86/165/49 36/176/49 68/184/49
f 68/185/50 2/186/50 35/187/50 94/188/50
f 68/184/51 36/176/51 2/189/51
f 71/178/52 86/182/52 68/185/52 94/188/52
f 83/158/53 84/157/53 60/190/53 66/191/53
f 66/191/54 60/190/54 59/192/54 55/193/54
f 67/194/55 58/195/55 55/193/55 59/192/55
f 83/161/56 66/196/56 55/197/56 81/162/56
f 58/198/57 81/162/57 55/197/57
f 44/199/27 39/200/27 48/152/27
f 81/201/27 58/153/27 48/152/27 39/200/27
f 97/1/1 139/5/1 110/4/1 109/3/1 12/2/1
f 134/6/58 141/9/58 142/8/58 131/7/58
f 131/10/1 142/14/1 82/13/1 8/12/1 103/11/1
f 129/202/3 128/203/3 11/18/3 9/17/3 123/204/3
f 133/20/59 145/23/59 147/22/59 126/21/59
f 146/24/60 144/27/60 132/26/60 103/25/60
f 150/28/61 151/32/61 119/31/61 111/30/61 106/29/61
f 25/33/7 115/36/7 113/35/7 24/34/7
f 136/205/8 124/206/8 15/40/8 14/39/8 121/207/8
f 119/208/9 7/46/9 13/45/9 112/209/9 111/210/9
f 89/47/1 146/48/1 103/11/1 8/12/1
f 147/49/1 85/53/1 10/52/1 127/51/1 126/50/1
f 111/30/62 112/55/62 107/54/62 106/29/62
f 109/56/11 115/36/11 25/33/11 12/57/11
f 139/58/63 154/60/63 150/28/63 106/29/63 110/59/63
f 107/54/7 112/55/7 13/62/7 20/61/7
f 113/35/64 115/36/64 116/64/64 114/63/64
f 110/65/65 116/64/65 115/36/65 109/56/65
f 107/66/66 113/35/66 114/63/66 106/67/66
f 20/68/16 24/34/16 113/35/16 107/66/16
f 106/67/67 114/63/67 116/64/67 110/65/67
f 28/69/18 7/72/18 119/71/18 105/70/18
f 108/73/18 121/76/18 14/75/18 30/74/18
f 105/70/18 119/71/18 138/77/18
f 117/78/68 119/81/68 130/80/68 125/79/68
f 118/82/69 137/84/69 138/83/69 117/78/69
f 122/85/21 124/87/21 104/86/21
f 120/88/21 123/91/21 9/90/21 37/89/21
f 38/92/21 15/93/21 124/87/21 122/85/21
f 121/94/70 118/82/70 136/95/70
f 128/96/71 129/98/71 133/20/71 135/97/71
f 127/99/24 10/101/24 50/100/24 135/97/24
f 151/32/72 156/103/72 141/9/72 134/6/72 130/102/72 119/31/72
f 144/27/73 158/107/73 159/106/73 157/105/73 145/23/73 133/20/73 129/98/73 123/104/73 132/26/73
f 50/100/27 11/108/27 128/96/27 135/97/27
f 133/20/74 126/21/74 127/99/74 135/97/74
f 104/86/21 123/91/21 120/88/21 122/85/21
f 137/84/75 118/82/75 121/94/75
f 137/109/18 121/76/18 108/73/18
f 138/77/18 137/109/18 108/73/18 105/70/18
f 138/83/76 119/81/76 117/78/76
f 101/110/31 158/112/31 144/111/31 146/48/31 89/47/31
f 159/113/32 158/112/32 101/110/32 102/114/32
f 157/115/33 159/113/33 102/114/33 90/116/33
f 145/117/34 157/115/34 90/116/34 85/53/34 147/49/34
f 166/118/8 165/120/8 152/119/8
f 163/121/35 166/118/35 98/123/35 87/122/35
f 97/1/31 93/125/31 154/124/31 139/5/31
f 150/126/32 154/124/32 93/125/32 95/128/32 151/127/32
f 151/127/33 95/128/33 99/130/33 156/129/33
f 141/131/34 156/129/34 99/130/34 82/13/34 142/14/34
f 164/132/36 163/121/36 87/122/36 100/133/36
f 153/134/7 164/137/7 100/136/7 62/135/7
f 132/138/7 153/140/7 103/139/7
f 153/134/8 62/135/8 67/142/8 143/141/8
f 103/143/77 153/146/77 143/145/77 131/144/77
f 163/121/78 164/148/78 165/147/78 166/118/78
f 153/140/7 132/138/7 164/149/7
f 132/138/7 123/150/7 164/149/7
f 165/147/79 164/148/79 123/151/79
f 134/152/27 131/154/27 143/153/27
f 105/155/80 161/158/80 84/157/80 28/156/80
f 125/159/81 160/162/81 161/161/81 117/160/81
f 38/163/42 122/166/42 162/165/42 80/164/42
f 155/167/82 161/170/82 105/169/82 108/168/82
f 162/165/42 155/167/42 72/171/42 80/164/42
f 155/167/42 108/168/42 30/172/42 72/171/42
f 155/167/83 118/174/83 117/173/83 161/170/83
f 136/175/84 118/174/84 155/167/84
f 124/176/85 136/175/85 155/167/85 162/165/85
f 120/177/47 37/180/47 88/179/47 152/178/47
f 152/119/8 88/181/8 98/123/8 166/118/8
f 162/182/86 122/183/86 120/177/86 152/178/86
f 162/165/87 149/184/87 124/176/87
f 149/185/88 165/188/88 123/187/88 104/186/88
f 149/184/89 104/189/89 124/176/89
f 152/178/90 165/188/90 149/185/90 162/182/90
f 161/158/91 148/191/91 60/190/91 84/157/91
f 148/191/92 140/193/92 59/192/92 60/190/92
f 67/194/93 59/192/93 140/193/93 143/195/93
f 161/161/94 160/162/94 140/197/94 148/196/94
f 143/198/95 140/197/95 160/162/95
f 130/199/27 134/152/27 125/200/27
f 160/201/27 125/200/27 134/152/27 143/153/27
