# Blender 4.4.3
# www.blender.org
mtllib car.mtl
o Cube
v 1.000000 0.000000 1.000000
v 0.715026 1.909844 0.352591
v 0.797897 1.078817 -0.968473
v 1.070814 0.466494 -1.869060
v 0.838641 0.466495 -2.000000
v 0.716287 1.914724 0.249806
v 0.629424 1.921183 -0.631527
v 0.000000 1.000000 -1.000000
v 0.000000 0.000000 1.000000
v 0.000000 0.800000 1.000000
v 0.000000 0.000000 2.100000
v 0.000000 0.500000 2.000000
v 0.000000 0.000000 -1.900000
v 0.000000 0.900000 -2.000000
v 0.000000 2.000000 -0.600000
v 0.000000 2.000000 0.300000
v 0.768251 0.000000 -1.900000
v 1.000000 0.000000 -1.869057
v 0.900000 0.913093 -1.869065
v 0.768251 0.900000 -2.000000
v 0.000000 0.466499 -2.000000
v 0.838641 0.366495 -2.100000
v 1.070814 0.366494 -1.969060
v 0.868251 0.150000 -2.100000
v 0.000000 0.366499 -2.100000
v 0.000000 0.150000 -2.100000
v 1.000000 0.150000 -1.969057
v 0.884928 1.073651 -0.877251
v 0.000000 1.078817 -0.968473
v 0.714948 1.914478 -0.540814
v 0.000000 1.921183 -0.631527
v 0.921823 1.000000 -1.000000
v 0.784785 0.886219 0.949706
v 0.650000 2.000000 -0.600000
v 0.613525 1.913781 0.350294
v 0.900000 0.800000 1.000000
v 0.650000 2.000000 0.300000
v 0.000000 0.886219 0.949706
v 0.000000 1.913781 0.350294
v 0.884624 1.039951 -0.540813
v 0.715115 1.914509 -0.442413
v 0.884534 1.030092 -0.442388
v 0.900000 0.000000 1.929558
v 0.726183 0.000000 2.100000
v 0.726183 0.500000 2.000000
v 0.900000 0.551044 1.829852
v 0.947403 0.954081 -0.540813
v 1.000000 0.000000 -0.540807
v 1.066684 0.166527 1.000000
v 0.951630 0.166542 1.829700
v 1.072067 0.243264 -0.540809
v 0.772874 0.166543 2.000000
v 0.000000 0.166550 2.000000
v 0.883549 0.921060 0.646112
v 0.650000 2.000000 -0.540814
v 0.855057 1.073282 0.740477
v 0.717503 1.912486 -0.635006
v 0.883135 1.084324 -0.966270
v -1.000000 0.000000 1.000000
v -0.715026 1.909844 0.352591
v -0.797897 1.078817 -0.968473
v -1.070814 0.466494 -1.869060
v -0.838641 0.466495 -2.000000
v -0.716287 1.914724 0.249806
v -0.629424 1.921183 -0.631527
v -0.768251 0.000000 -1.900000
v -1.000000 0.000000 -1.869057
v -0.900000 0.913093 -1.869065
v -0.768251 0.900000 -2.000000
v -0.838641 0.366495 -2.100000
v -1.070814 0.366494 -1.969060
v -0.868251 0.150000 -2.100000
v -1.000000 0.150000 -1.969057
v -0.884928 1.073651 -0.877251
v -0.714948 1.914478 -0.540814
v -0.921823 1.000000 -1.000000
v -0.784785 0.886219 0.949706
v -0.650000 2.000000 -0.600000
v -0.613525 1.913781 0.350294
v -0.900000 0.800000 1.000000
v -0.650000 2.000000 0.300000
v -0.884624 1.039951 -0.540813
v -0.715115 1.914509 -0.442413
v -0.884534 1.030092 -0.442388
v -0.900000 0.000000 1.929558
v -0.726183 0.000000 2.100000
v -0.726183 0.500000 2.000000
v -0.900000 0.551044 1.829852
v -0.947403 0.954081 -0.540813
v -1.000000 0.000000 -0.540807
v -1.066684 0.166527 1.000000
v -0.951630 0.166542 1.829700
v -1.072067 0.243264 -0.540809
v -0.772874 0.166543 2.000000
v -0.883549 0.921060 0.646112
v -0.650000 2.000000 -0.540814
v -0.855057 1.073282 0.740477
v -0.717503 1.912486 -0.635006
v -0.883135 1.084324 -0.966270
v 1.000000 0.000000 -1.580000
v 0.000000 0.000000 -1.580000
v 1.072621 0.287428 -0.739056
v 1.048907 0.165086 -0.688381
v 1.000000 0.000000 -0.620000
v 1.000000 0.000000 -0.620000
v 0.000000 0.000000 -0.620000
v 1.043252 0.166530 1.168979
v 0.979181 0.166538 1.631018
v 0.962324 0.129722 1.646267
v 0.993641 0.021893 1.109068
v 0.924695 0.000000 1.700000
v 0.924695 0.000000 1.700000
v 0.989242 0.000000 1.100000
v 0.989242 0.000000 1.100000
v 1.072423 0.389783 -1.317804
v 1.045153 0.480000 -1.100000
v 1.051813 0.438579 -1.000000
v 0.000000 0.000000 1.700000
v 0.000000 0.000000 1.100000
v 1.057784 0.339411 -1.439411
v 1.038664 0.254702 -1.474499
v 1.000000 0.000000 -1.580000
v 1.061756 0.339411 -0.760589
v 0.969803 0.212132 1.612132
v 1.028633 0.212132 1.187868
v 0.976098 0.300000 1.400000
v -1.000000 0.000000 -1.580000
v -1.000000 0.000000 -0.620000
v -1.048907 0.165086 -0.688381
v -1.000000 0.000000 -0.620000
v -1.072621 0.287428 -0.739056
v -0.924695 0.000000 1.700000
v -0.924695 0.000000 1.700000
v -0.989242 0.000000 1.100000
v -0.989242 0.000000 1.100000
v -0.993641 0.021893 1.109068
v -0.962324 0.129722 1.646267
v -0.979181 0.166538 1.631018
v -1.043252 0.166530 1.168979
v -1.072423 0.389783 -1.317804
v -1.045153 0.480000 -1.100000
v -1.051813 0.438579 -1.000000
v -1.038664 0.254702 -1.474499
v -1.000000 0.000000 -1.580000
v -1.057784 0.339411 -1.439411
v -1.061756 0.339411 -0.760589
v -0.969803 0.212132 1.612132
v -1.028633 0.212132 1.187868
v -0.976098 0.300000 1.400000
vn -0.0000 -1.0000 -0.0000
vn 0.9653 -0.2608 -0.0133
vn -0.0000 0.9578 0.2873
vn 0.9620 -0.2515 0.1066
vn 0.9233 -0.3627 0.1266
vn 0.9588 0.2838 -0.0098
vn -0.0000 -0.0000 -1.0000
vn -0.0000 0.5039 0.8638
vn -0.0000 0.3714 -0.9285
vn -0.0000 1.0000 -0.0000
vn -0.0000 0.9950 -0.0995
vn 0.5731 0.1571 -0.8043
vn -0.0000 -0.8000 -0.6000
vn 0.9865 -0.1636 -0.0074
vn 0.5832 -0.0555 -0.8104
vn 0.2807 -0.7238 -0.6303
vn 0.3704 0.6568 -0.6568
vn -0.0000 0.7071 -0.7071
vn 0.9779 -0.2028 -0.0507
vn 0.8562 0.5161 0.0245
vn 0.7926 0.6097 -0.0007
vn 0.9844 0.1754 0.0143
vn 0.9813 0.1921 0.0132
vn 0.9815 0.1904 0.0200
vn 0.9819 0.1893 0.0091
vn 0.7964 0.6048 -0.0000
vn 0.6845 0.0936 0.7229
vn -0.0000 0.5148 0.8573
vn 0.9472 -0.3207 -0.0063
vn 0.8058 0.5891 0.0597
vn 0.9805 0.1967 0.0033
vn 0.9743 0.2041 0.0952
vn 0.9768 0.2117 0.0326
vn -0.0000 -0.0000 1.0000
vn 0.6778 0.2207 0.7013
vn 0.9839 0.1782 0.0114
vn 0.8964 0.4391 0.0604
vn 0.7997 0.5991 0.0383
vn 0.7964 0.6048 -0.0015
vn 0.9853 0.1706 0.0122
vn 0.7935 0.6086 0.0087
vn 0.9130 0.4068 0.0304
vn -0.9653 -0.2608 -0.0133
vn -0.9620 -0.2515 0.1066
vn -0.9233 -0.3627 0.1266
vn -0.9588 0.2838 -0.0098
vn -0.5731 0.1571 -0.8043
vn -0.9865 -0.1636 -0.0074
vn -0.5832 -0.0555 -0.8104
vn -0.2807 -0.7238 -0.6303
vn -0.3704 0.6568 -0.6568
vn -0.9779 -0.2028 -0.0507
vn -0.8562 0.5161 0.0245
vn -0.7926 0.6097 -0.0007
vn -0.9844 0.1754 0.0143
vn -0.9813 0.1921 0.0132
vn -0.9815 0.1904 0.0200
vn -0.9819 0.1893 0.0091
vn -0.7964 0.6048 -0.0000
vn -0.6845 0.0936 0.7229
vn -0.9472 -0.3207 -0.0063
vn -0.8058 0.5891 0.0597
vn -0.9805 0.1967 0.0033
vn -0.9743 0.2041 0.0952
vn -0.9768 0.2117 0.0326
vn -0.6778 0.2207 0.7013
vn -0.9839 0.1782 0.0114
vn -0.8964 0.4391 0.0604
vn -0.7997 0.5991 0.0383
vn -0.7964 0.6048 -0.0015
vn -0.9853 0.1706 0.0122
vn -0.7935 0.6086 0.0087
vn -0.9130 0.4068 0.0304
vn -0.0000 -0.3827 0.9239
vn -0.0000 -0.9239 0.3827
vn -0.0000 -0.9239 -0.3827
vn -0.0000 -0.3827 -0.9239
vt 0.250000 0.500000
vt 0.358531 0.500000
vt 0.375000 0.500000
vt 0.444832 0.557399
vt 0.375000 0.557399
vt 0.375000 0.547500
vt 0.416857 0.538968
vt 0.443447 0.532618
vt 0.375000 0.750000
vt 0.250000 0.750000
vt 0.250000 0.547500
vt 0.625000 0.750000
vt 0.625000 0.750000
vt 0.750000 0.750000
vt 0.649141 0.750000
vt 0.495926 0.750000
vt 0.461947 0.750000
vt 0.486913 0.750000
vt 0.458290 0.750000
vt 0.465955 0.750000
vt 0.386355 0.750000
vt 0.443942 0.500000
vt 0.447964 0.500000
vt 0.625000 0.500000
vt 0.467688 0.500000
vt 0.477626 0.500000
vt 0.375000 0.375000
vt 0.449028 0.375000
vt 0.449026 0.482990
vt 0.375000 0.483531
vt 0.735598 0.750000
vt 0.639455 0.750000
vt 0.642231 0.750000
vt 0.732827 0.750000
vt 0.637418 0.500000
vt 0.737668 0.500000
vt 0.735479 0.500000
vt 0.639612 0.500000
vt 0.625000 0.516441
vt 0.750000 0.500000
vt 0.643298 0.500000
vt 0.353273 0.750000
vt 0.625000 0.481702
vt 0.433256 0.500000
vt 0.418275 0.500000
vt 0.625000 0.375000
vt 0.625000 0.512881
vt 0.625000 0.556547
vt 0.625000 0.557398
vt 0.625000 0.728610
vt 0.625000 0.546284
vt 0.625000 0.710595
vt 0.625000 0.734613
vt 0.625000 0.520366
vt 0.625000 0.569321
vt 0.625000 0.774141
vt 0.508272 0.773014
vt 0.375000 0.771727
vt 0.508275 0.875000
vt 0.375000 0.875000
vt 0.455825 0.529928
vt 0.500263 0.750000
vt 0.515834 0.750000
vt 0.479698 0.750000
vt 0.625000 0.875000
vt 0.416857 0.538968
vt 0.486913 0.750000
vt 0.465955 0.750000
vt 0.477626 0.500000
vt 0.433256 0.500000
vt 0.515834 0.750000
vt 0.500263 0.750000
vt 0.901871 0.936295
vt 0.987100 0.927436
vt 1.000000 0.926650
vt 1.000000 0.573350
vt 0.987100 0.572564
vt 0.901871 0.563705
vt 0.875000 0.566315
vt 0.875000 0.933685
vt 0.750000 0.575697
vt 0.750000 0.924303
vt 0.625000 0.576821
vt 0.625000 0.923179
vt 0.598134 0.575146
vt 0.576439 0.578156
vt 0.500000 0.584876
vt 0.500000 0.915124
vt 0.576439 0.921844
vt 0.598134 0.924854
vt 0.500000 0.750000
vt 0.000000 0.573350
vt 0.000000 0.926650
vt 0.000000 0.750000
vt 1.000000 0.928571
vt 1.000000 0.571429
vt 0.906197 0.564524
vt 0.875000 0.561110
vt 0.875000 0.938890
vt 0.906197 0.935476
vt 0.830214 0.558496
vt 0.750000 0.563366
vt 0.750000 0.936634
vt 0.830214 0.941504
vt 0.713171 0.562176
vt 0.625000 0.560401
vt 0.625000 0.939599
vt 0.713172 0.937824
vt 0.605855 0.558460
vt 0.560799 0.562695
vt 0.500000 0.571429
vt 0.500000 0.928571
vt 0.560799 0.937305
vt 0.605855 0.941539
vt 0.000000 0.928571
vt 0.000000 0.571429
s 0
f 101/1/1 13/1/1 17/2/1 18/3/1 100/3/1
f 51/4/2 48/5/2 104/6/2 105/6/2 103/7/2 102/8/2
f 48/5/1 1/9/1 9/10/1 106/11/1 104/6/1
f 46/12/3 36/13/3 10/14/3 12/14/3 45/15/3
f 50/16/4 43/9/4 111/9/4 112/9/4 109/17/4 108/18/4
f 113/9/5 114/9/5 1/9/5 49/19/5 107/20/5 110/21/5
f 115/22/6 4/23/6 19/24/6 32/24/6 117/25/6 116/26/6
f 26/27/7 25/28/7 22/29/7 24/30/7
f 38/31/8 33/32/8 35/33/8 39/34/8
f 3/35/9 29/36/9 31/37/9 7/38/9
f 55/39/10 34/24/10 15/40/10 16/14/10 37/13/10
f 32/24/11 19/24/11 20/41/11 14/40/11 8/40/11
f 119/10/1 9/10/1 1/9/1 114/9/1
f 111/9/1 43/9/1 44/42/1 11/10/1 118/10/1
f 19/24/12 4/23/12 5/29/12 20/43/12
f 17/2/13 13/1/13 26/1/13 24/2/13
f 122/3/14 100/3/14 18/3/14 4/23/14 115/22/14 120/44/14 121/45/14
f 5/29/7 21/28/7 14/46/7 20/43/7
f 22/29/15 23/23/15 27/3/15 24/30/15
f 18/3/16 17/2/16 24/2/16 27/3/16
f 5/29/17 4/23/17 23/23/17 22/29/17
f 21/28/18 5/29/18 22/29/18 25/28/18
f 4/23/19 18/3/19 27/3/19 23/23/19
f 29/36/9 3/35/9 32/24/9 8/40/9
f 7/38/9 31/37/9 15/40/9 34/24/9
f 3/35/9 58/24/9 32/24/9
f 28/47/20 40/48/20 47/49/20 32/24/20
f 6/50/21 41/51/21 55/39/21 37/13/21
f 54/52/22 56/53/22 36/13/22
f 30/54/23 28/47/23 58/24/23 57/24/23
f 35/33/8 2/13/8 37/13/8
f 33/32/8 38/31/8 10/14/8 36/13/8
f 39/34/8 35/33/8 37/13/8 16/14/8
f 30/54/24 40/48/24 28/47/24
f 41/51/25 42/55/25 40/48/25 30/54/25
f 34/24/26 55/39/26 30/54/26
f 45/56/27 52/57/27 50/16/27 46/12/27
f 44/58/28 52/57/28 53/59/28 11/60/28
f 48/5/29 51/4/29 49/19/29 1/9/29
f 47/49/30 40/48/30 42/55/30
f 117/25/31 32/24/31 47/49/31 51/4/31 102/8/31 123/61/31
f 107/20/32 49/19/32 36/13/32 46/12/32 50/16/32 108/18/32 124/62/32 126/63/32 125/64/32
f 49/19/33 51/4/33 47/49/33 36/13/33
f 53/59/34 52/57/34 45/56/34 12/65/34
f 50/16/35 52/57/35 44/58/35 43/9/35
f 54/52/36 42/55/36 41/51/36 6/50/36 56/53/36
f 42/55/37 54/52/37 36/13/37 47/49/37
f 2/13/38 6/50/38 37/13/38
f 30/54/39 55/39/39 41/51/39
f 36/13/40 56/53/40 6/50/40 2/13/40
f 2/13/8 35/33/8 33/32/8 36/13/8
f 57/24/41 34/24/41 30/54/41
f 57/24/9 7/38/9 34/24/9
f 58/24/9 3/35/9 7/38/9 57/24/9
f 58/24/42 28/47/42 32/24/42
f 127/3/1 67/3/1 66/2/1 13/1/1 101/1/1
f 130/6/43 128/6/43 90/5/43 93/4/43 131/8/43 129/66/43
f 9/10/1 59/9/1 90/5/1 128/6/1 106/11/1
f 88/12/3 87/15/3 12/14/3 10/14/3 80/13/3
f 133/9/44 85/9/44 92/16/44 138/67/44 137/17/44 132/9/44
f 139/68/45 91/19/45 59/9/45 135/9/45 134/9/45 136/21/45
f 76/24/46 68/24/46 62/23/46 140/22/46 141/69/46 142/25/46
f 26/27/7 72/30/7 70/29/7 25/28/7
f 38/31/8 39/34/8 79/33/8 77/32/8
f 61/35/9 65/38/9 31/37/9 29/36/9
f 96/39/10 81/13/10 16/14/10 15/40/10 78/24/10
f 76/24/11 8/40/11 14/40/11 69/41/11 68/24/11
f 11/10/1 86/42/1 85/9/1 133/9/1 118/10/1
f 59/9/1 9/10/1 119/10/1 135/9/1
f 68/24/47 69/43/47 63/29/47 62/23/47
f 66/2/13 72/2/13 26/1/13 13/1/13
f 145/70/48 140/22/48 62/23/48 67/3/48 127/3/48 144/3/48 143/45/48
f 63/29/7 69/43/7 14/46/7 21/28/7
f 70/29/49 72/30/49 73/3/49 71/23/49
f 67/3/50 73/3/50 72/2/50 66/2/50
f 63/29/51 70/29/51 71/23/51 62/23/51
f 21/28/18 25/28/18 70/29/18 63/29/18
f 62/23/52 71/23/52 73/3/52 67/3/52
f 29/36/9 8/40/9 76/24/9 61/35/9
f 65/38/9 78/24/9 15/40/9 31/37/9
f 61/35/9 76/24/9 99/24/9
f 74/47/53 76/24/53 89/49/53 82/48/53
f 64/50/54 81/13/54 96/39/54 83/51/54
f 95/52/55 80/13/55 97/53/55
f 75/54/56 98/24/56 99/24/56 74/47/56
f 79/33/8 81/13/8 60/13/8
f 77/32/8 80/13/8 10/14/8 38/31/8
f 39/34/8 16/14/8 81/13/8 79/33/8
f 75/54/57 74/47/57 82/48/57
f 83/51/58 75/54/58 82/48/58 84/55/58
f 78/24/59 75/54/59 96/39/59
f 87/56/60 88/12/60 92/16/60 94/57/60
f 86/58/28 11/60/28 53/59/28 94/57/28
f 90/5/61 59/9/61 91/19/61 93/4/61
f 89/49/62 84/55/62 82/48/62
f 93/4/63 89/49/63 76/24/63 142/25/63 146/61/63 131/8/63
f 92/16/64 88/12/64 80/13/64 91/19/64 139/68/64 148/64/64 149/71/64 147/72/64 138/67/64
f 91/19/65 80/13/65 89/49/65 93/4/65
f 53/59/34 12/65/34 87/56/34 94/57/34
f 92/16/66 85/9/66 86/58/66 94/57/66
f 95/52/67 97/53/67 64/50/67 83/51/67 84/55/67
f 84/55/68 89/49/68 80/13/68 95/52/68
f 60/13/69 81/13/69 64/50/69
f 75/54/70 83/51/70 96/39/70
f 80/13/71 60/13/71 64/50/71 97/53/71
f 60/13/8 80/13/8 77/32/8 79/33/8
f 98/24/72 75/54/72 78/24/72
f 98/24/9 78/24/9 65/38/9
f 99/24/9 98/24/9 65/38/9 61/35/9
f 99/24/73 76/24/73 74/47/73
f 139/73/74 136/74/74 134/75/74 113/76/74 110/77/74 107/78/74 125/79/74 148/80/74
f 126/81/75 149/82/75 148/80/75 125/79/75
f 124/83/76 147/84/76 149/82/76 126/81/76
f 108/85/77 109/86/77 112/87/77 132/88/77 137/89/77 138/90/77 147/84/77 124/83/77
f 132/88/7 112/87/7 111/87/7 118/91/7 133/88/7
f 114/92/34 113/92/34 134/93/34 135/93/34 119/94/34
f 144/95/74 122/96/74 121/97/74 120/98/74 145/99/74 143/100/74
f 115/101/75 116/102/75 141/103/75 140/104/75 145/99/75 120/98/75
f 116/102/76 117/105/76 123/106/76 146/107/76 142/108/76 141/103/76
f 102/109/77 103/110/77 105/111/77 130/112/77 129/113/77 131/114/77 146/107/77 123/106/77
f 130/112/7 105/111/7 104/111/7 106/91/7 128/112/7
f 127/115/34 101/94/34 100/116/34 122/116/34 144/115/34
