# Blender 4.4.3
# www.blender.org
mtllib door.mtl
o Door
v -0.000000 0.080000 -0.050000
v -0.264974 1.909844 -0.697409
v -0.283713 1.914724 -0.750194
v -0.285052 1.914478 -1.540814
v -0.100000 0.800000 -0.050000
v -0.280000 1.980000 -0.700000
v -0.115377 1.039951 -1.540813
v -0.284885 1.914509 -1.442413
v -0.115466 1.030092 -1.442388
v -0.000000 0.080000 -1.540807
v -0.116451 0.921060 -0.353888
v -0.280000 1.980000 -1.540814
v -0.144944 1.073282 -0.259523
v 0.100000 0.000000 -1.540807
v 0.172067 0.243264 -1.540809
v 0.100000 0.000000 0.000000
v 0.166684 0.166527 0.000000
v -0.250000 2.000000 -0.700000
v -0.250000 2.000000 -1.540814
v -0.015377 1.039951 -1.540813
v 0.047402 0.954081 -1.540813
v -0.183713 1.914724 -0.750194
v -0.184885 1.914509 -1.442413
v -0.000000 0.800000 0.000000
v -0.016451 0.921060 -0.353888
v -0.044944 1.073282 -0.259523
v -0.184974 1.909844 -0.647409
v -0.185052 1.914478 -1.540814
v -0.015466 1.030092 -1.442388
vn -0.9978 0.0659 0.0008
vn -0.9846 -0.1743 -0.0161
vn -0.9819 -0.1893 -0.0091
vn -0.9928 -0.1193 -0.0129
vn -0.9905 -0.1376 -0.0000
vn -0.9922 -0.1240 -0.0095
vn -0.9310 -0.1878 0.3131
vn -0.9970 0.0769 0.0017
vn -0.9792 -0.0361 0.1995
vn 0.7926 0.6097 -0.0007
vn 0.9844 0.1754 0.0143
vn 0.9819 0.1893 0.0091
vn 0.9472 -0.3207 -0.0063
vn 0.8058 0.5891 0.0597
vn 0.9768 0.2117 0.0326
vn 0.8964 0.4391 0.0604
vn 0.7997 0.5991 0.0383
vn 0.7964 0.6048 -0.0015
vn 0.9853 0.1706 0.0122
vn -0.0000 -0.0000 -1.0000
vn -0.0000 0.5269 -0.8499
vn -0.3506 0.1404 0.9259
vn -0.4456 0.3976 0.8021
vn -0.5547 0.8321 -0.0000
vn -0.4264 0.0967 0.8994
vn -0.3317 -0.0654 0.9411
vn -0.0000 -1.0000 0.0003
vn -0.0000 -0.0000 1.0000
vn -0.0000 0.9950 0.0997
vn -0.0000 -0.5037 -0.8639
vn -0.6247 -0.7809 -0.0000
vt 0.367914 0.754128
vt 0.373802 0.746470
vt 0.275158 0.746470
vt 0.286702 0.754153
vt 0.414408 0.870705
vt 0.450061 0.884908
vt 0.425479 0.852847
vt 0.275158 0.754157
vt 0.275158 0.856757
vt 0.286705 0.857914
vt 0.275158 0.969379
vt 0.450061 0.969379
vt 0.374106 0.754701
vt 0.128146 0.967161
vt 0.243658 0.967125
vt 0.260078 0.981391
vt 0.119770 0.981391
vt 0.062014 0.801346
vt 0.046267 0.826748
vt 0.002959 0.781145
vt 0.243653 0.819541
vt 0.260078 0.821186
vt 0.260078 0.967120
vt 0.260077 0.647647
vt 0.260077 0.688241
vt 0.002959 0.675436
vt 0.002959 0.647647
vt 0.260078 0.806857
vt 0.110994 0.966347
vt 0.010967 0.892504
vt 0.011722 0.889292
vt 0.013365 0.888531
vt 0.015927 0.893274
vt 0.041846 0.939049
vt 0.041709 0.931260
vt 0.046659 0.932094
vt 0.046797 0.939884
vt 0.030260 0.988315
vt 0.025814 0.993531
vt 0.020761 0.986100
vt 0.030260 0.892789
vt 0.026668 0.952124
vt 0.021301 0.953435
vt 0.025833 0.893891
vt 0.048303 0.923387
vt 0.048303 0.965387
vt 0.046797 0.965287
vt 0.046797 0.923287
vt 0.030192 0.889194
vt 0.028552 0.888531
vt 0.010967 0.985703
vt 0.012643 0.937194
vt 0.017603 0.937965
vt 0.020056 0.942708
vt 0.020761 0.978930
vt 0.046797 0.923282
vt 0.046797 0.888531
vt 0.050717 0.888536
vt 0.050717 0.923287
vt 0.046456 0.939884
vt 0.046456 0.984882
vt 0.041709 0.985694
vt 0.041709 0.940696
vt 0.041709 0.888536
vt 0.041709 0.943454
vt 0.036689 0.943450
vt 0.036689 0.888531
vt 0.015311 0.990442
vt 0.041846 0.888531
vt 0.046797 0.889366
vt 0.030260 0.963373
vt 0.030260 0.888531
vt 0.036689 0.965883
s 0
usemtl Material.001
f 3/1/1 6/2/1 12/3/1 8/4/1
f 11/5/2 5/6/2 13/7/2
f 8/4/3 4/8/3 7/9/3 9/10/3
f 10/11/4 9/10/4 7/9/4
f 1/12/5 5/6/5 10/11/5
f 9/10/6 10/11/6 5/6/6 11/5/6
f 2/13/7 6/2/7 3/1/7
f 4/8/8 8/4/8 12/3/8
f 5/6/9 2/13/9 3/1/9 13/7/9
f 22/14/10 23/15/10 19/16/10 18/17/10
f 25/18/11 26/19/11 24/20/11
f 23/15/12 29/21/12 20/22/12 28/23/12
f 14/24/13 15/25/13 17/26/13 16/27/13
f 21/28/14 20/22/14 29/21/14
f 17/26/15 15/25/15 21/28/15 24/20/15
f 29/21/16 25/18/16 24/20/16 21/28/16
f 27/29/17 22/14/17 18/17/17
f 28/23/18 19/16/18 23/15/18
f 24/20/19 26/19/19 22/14/19 27/29/19
f 4/30/20 12/31/20 19/32/20 28/33/20
f 11/34/21 13/35/21 26/36/21 25/37/21
f 1/38/22 16/39/22 17/40/22
f 2/41/23 5/42/23 24/43/23 27/44/23
f 12/45/24 6/46/24 18/47/24 19/48/24
f 6/49/25 2/41/25 27/44/25 18/50/25
f 10/51/20 7/52/20 20/53/20 21/54/20
f 10/51/20 21/54/20 15/55/20
f 7/52/20 4/30/20 28/33/20 20/53/20
f 5/42/26 1/38/26 17/40/26 24/43/26
f 3/56/27 8/57/27 23/58/27 22/59/27
f 8/60/28 9/61/28 29/62/28 23/63/28
f 9/64/29 11/65/29 25/66/29 29/67/29
f 10/51/20 15/55/20 14/68/20
f 13/35/30 3/69/30 22/70/30 26/36/30
f 1/71/31 10/72/31 14/67/31 16/73/31
