# Blender 4.4.3
# www.blender.org
mtllib steering_wheel.mtl
o SteeringWheel
v 1.052859 0.000000 0.282113
v 0.996276 0.141421 0.266951
v 0.859674 0.200000 0.230349
v 0.723071 0.141421 0.193746
v 0.666489 0.000000 0.178585
v 0.723071 -0.141421 0.193746
v 0.859674 -0.200000 0.230349
v 0.996276 -0.141421 0.266951
v 1.052859 0.000000 -0.282113
v 0.996276 0.141421 -0.266952
v 0.859674 0.200000 -0.230349
v 0.723071 0.141421 -0.193747
v 0.666489 0.000000 -0.178585
v 0.723071 -0.141421 -0.193747
v 0.859674 -0.200000 -0.230349
v 0.996276 -0.141421 -0.266952
v 0.770746 0.000000 -0.770746
v 0.729325 0.141421 -0.729325
v 0.629325 0.200000 -0.629325
v 0.529325 0.141421 -0.529325
v 0.487904 0.000000 -0.487904
v 0.529325 -0.141421 -0.529325
v 0.629325 -0.200000 -0.629325
v 0.729325 -0.141421 -0.729325
v 0.282113 0.000000 -1.052859
v 0.266952 0.141421 -0.996276
v 0.230349 0.200000 -0.859674
v 0.193746 0.141421 -0.723071
v 0.178585 0.000000 -0.666489
v 0.193746 -0.141421 -0.723071
v 0.230349 -0.200000 -0.859674
v 0.266952 -0.141421 -0.996276
v -0.282113 0.000000 -1.052859
v -0.266951 0.141421 -0.996276
v -0.230349 0.200000 -0.859674
v -0.193746 0.141421 -0.723071
v -0.178585 0.000000 -0.666489
v -0.193746 -0.141421 -0.723071
v -0.230349 -0.200000 -0.859674
v -0.266951 -0.141421 -0.996276
v -0.770746 0.000000 -0.770747
v -0.729325 0.141421 -0.729325
v -0.629325 0.200000 -0.629325
v -0.529325 0.141421 -0.529325
v -0.487904 0.000000 -0.487904
v -0.529325 -0.141421 -0.529325
v -0.629325 -0.200000 -0.629325
v -0.729325 -0.141421 -0.729325
v -1.052859 0.000000 -0.282113
v -0.996276 0.141421 -0.266952
v -0.859674 0.200000 -0.230349
v -0.723071 0.141421 -0.193746
v -0.666489 0.000000 -0.178585
v -0.723071 -0.141421 -0.193746
v -0.859674 -0.200000 -0.230349
v -0.996276 -0.141421 -0.266952
v -1.052859 0.000000 0.282113
v -0.996276 0.141421 0.266951
v -0.859674 0.200000 0.230349
v -0.723071 0.141421 0.193746
v -0.666489 0.000000 0.178585
v -0.723071 -0.141421 0.193746
v -0.859674 -0.200000 0.230349
v -0.996276 -0.141421 0.266951
v -0.770746 0.000000 0.770747
v -0.729325 0.141421 0.729325
v -0.629325 0.200000 0.629325
v -0.529325 0.141421 0.529325
v -0.487904 0.000000 0.487904
v -0.529325 -0.141421 0.529325
v -0.629325 -0.200000 0.629325
v -0.729325 -0.141421 0.729325
v -0.282113 0.000000 1.052859
v -0.266951 0.141421 0.996276
v -0.230349 0.200000 0.859674
v -0.193746 0.141421 0.723071
v -0.178585 0.000000 0.666489
v -0.193746 -0.141421 0.723071
v -0.230349 -0.200000 0.859674
v -0.266951 -0.141421 0.996276
v 0.282113 0.000000 1.052859
v 0.266951 0.141421 0.996276
v 0.230349 0.200000 0.859674
v 0.193746 0.141421 0.723071
v 0.178585 0.000000 0.666489
v 0.193746 -0.141421 0.723071
v 0.230349 -0.200000 0.859674
v 0.266951 -0.141421 0.996276
v 0.770746 0.000000 0.770747
v 0.729325 0.141421 0.729325
v 0.629325 0.200000 0.629325
v 0.529325 0.141421 0.529325
v 0.487904 0.000000 0.487904
v 0.529325 -0.141421 0.529325
v 0.629325 -0.200000 0.629325
v 0.729325 -0.141421 0.729325
vn 0.9284 0.3715 -0.0000
vn 0.3941 0.9191 -0.0000
vn -0.3941 0.9191 -0.0000
vn -0.0000 0.1066 -0.9943
vn -0.0000 -1.0000 -0.0000
vn -0.3941 -0.9191 -0.0000
vn 0.3941 -0.9191 -0.0000
vn 0.9284 -0.3715 -0.0000
vn 0.8041 0.3715 -0.4642
vn 0.3413 0.9191 -0.1971
vn -0.3413 0.9191 0.1971
vn -0.8041 0.3715 0.4642
vn -0.8041 -0.3715 0.4642
vn -0.3413 -0.9191 0.1971
vn 0.3413 -0.9191 -0.1971
vn 0.8041 -0.3715 -0.4642
vn 0.4642 0.3715 -0.8041
vn 0.1971 0.9191 -0.3413
vn -0.1971 0.9191 0.3413
vn -0.4642 0.3715 0.8041
vn -0.4642 -0.3715 0.8041
vn -0.1971 -0.9191 0.3413
vn 0.1971 -0.9191 -0.3413
vn 0.4642 -0.3715 -0.8041
vn -0.0000 0.3715 -0.9284
vn -0.0000 0.9191 -0.3941
vn -0.0000 0.9191 0.3941
vn -0.0000 0.3715 0.9284
vn -0.0000 -0.3715 0.9284
vn -0.0000 -0.9191 0.3941
vn -0.0000 -0.9191 -0.3941
vn -0.0000 -0.3715 -0.9284
vn -0.4642 0.3715 -0.8041
vn -0.1971 0.9191 -0.3413
vn 0.1971 0.9191 0.3413
vn 0.4642 0.3715 0.8041
vn 0.4642 -0.3715 0.8041
vn 0.1971 -0.9191 0.3413
vn -0.1971 -0.9191 -0.3413
vn -0.4642 -0.3715 -0.8041
vn -0.8041 0.3715 -0.4642
vn -0.3413 0.9191 -0.1971
vn 0.3413 0.9191 0.1971
vn 0.8041 0.3715 0.4642
vn 0.8041 -0.3715 0.4642
vn 0.3413 -0.9191 0.1971
vn -0.3413 -0.9191 -0.1971
vn -0.8041 -0.3715 -0.4642
vn -0.9284 0.3715 -0.0000
vn -0.0000 0.1066 0.9943
vn -0.0000 -0.1066 0.9943
vn -0.9284 -0.3715 -0.0000
vn -0.0000 -0.1066 -0.9943
vn -0.0000 1.0000 -0.0000
vt 0.500000 0.250000
vt 0.500000 0.208342
vt 0.624975 0.208342
vt 0.624975 0.250000
vt 0.749950 0.208342
vt 0.749950 0.250000
vt 0.874925 0.208342
vt 0.874925 0.250000
vt 0.830286 0.509822
vt 0.804278 0.534251
vt 0.191561 0.534251
vt 0.165552 0.509822
vt 0.995706 0.699430
vt 0.995706 0.995231
vt 0.005302 0.995231
vt 0.005302 0.699430
vt 0.125075 0.250000
vt 0.125075 0.208342
vt 0.250050 0.208342
vt 0.250050 0.250000
vt 0.375025 0.208342
vt 0.375025 0.250000
vt 0.500000 0.166683
vt 0.624975 0.166683
vt 0.749950 0.166683
vt 0.874925 0.166683
vt 0.999900 0.166683
vt 0.999900 0.208342
vt 0.000100 0.208342
vt 0.000100 0.166683
vt 0.125075 0.166683
vt 0.250050 0.166683
vt 0.375025 0.166683
vt 0.500000 0.125025
vt 0.624975 0.125025
vt 0.749950 0.125025
vt 0.874925 0.125025
vt 0.999900 0.125025
vt 0.000100 0.125025
vt 0.125075 0.125025
vt 0.250050 0.125025
vt 0.375025 0.125025
vt 0.500000 0.083367
vt 0.624975 0.083367
vt 0.749950 0.083367
vt 0.874925 0.083367
vt 0.999900 0.083367
vt 0.000100 0.083367
vt 0.125075 0.083367
vt 0.250050 0.083367
vt 0.375025 0.083367
vt 0.500000 0.041708
vt 0.624975 0.041708
vt 0.749950 0.041708
vt 0.874925 0.041708
vt 0.999900 0.041708
vt 0.000100 0.041708
vt 0.125075 0.041708
vt 0.250050 0.041708
vt 0.375025 0.041708
vt 0.500000 0.000050
vt 0.624975 0.000050
vt 0.749950 0.000050
vt 0.874925 0.000050
vt 0.999900 0.000050
vt 0.000100 0.000050
vt 0.125075 0.000050
vt 0.250050 0.000050
vt 0.375025 0.000050
vt 0.500000 0.499950
vt 0.500000 0.458292
vt 0.624975 0.458292
vt 0.624975 0.499950
vt 0.749950 0.458292
vt 0.749950 0.499950
vt 0.874925 0.458292
vt 0.874925 0.499950
vt 0.191561 0.583108
vt 0.165552 0.558679
vt 0.830286 0.558679
vt 0.804278 0.583108
vt 0.165552 0.607537
vt 0.830286 0.607537
vt 0.125075 0.499950
vt 0.125075 0.458292
vt 0.250050 0.458292
vt 0.250050 0.499950
vt 0.375025 0.458292
vt 0.375025 0.499950
vt 0.500000 0.416633
vt 0.624975 0.416633
vt 0.749950 0.416633
vt 0.874925 0.416633
vt 0.999900 0.416633
vt 0.999900 0.458292
vt 0.000100 0.458292
vt 0.000100 0.416633
vt 0.125075 0.416633
vt 0.250050 0.416633
vt 0.375025 0.416633
vt 0.500000 0.374975
vt 0.624975 0.374975
vt 0.749950 0.374975
vt 0.874925 0.374975
vt 0.999900 0.374975
vt 0.000100 0.374975
vt 0.125075 0.374975
vt 0.250050 0.374975
vt 0.375025 0.374975
vt 0.500000 0.333317
vt 0.624975 0.333317
vt 0.749950 0.333317
vt 0.874925 0.333317
vt 0.999900 0.333317
vt 0.000100 0.333317
vt 0.125075 0.333317
vt 0.250050 0.333317
vt 0.375025 0.333317
vt 0.500000 0.291658
vt 0.624975 0.291658
vt 0.749950 0.291658
vt 0.874925 0.291658
vt 0.999900 0.291658
vt 0.000100 0.291658
vt 0.125075 0.291658
vt 0.250050 0.291658
vt 0.375025 0.291658
vt 0.999900 0.250000
vt 0.000100 0.250000
vt 0.830286 0.558679
vt 0.165552 0.558679
vt 0.830286 0.674471
vt 0.165552 0.674471
vt 0.165552 0.607537
s 0
f 1/1/1 9/2/1 10/3/1 2/4/1
f 2/4/2 10/3/2 11/5/2 3/6/2
f 3/6/3 11/5/3 12/7/3 4/8/3
f 54/9/4 53/10/4 13/11/4 14/12/4
f 62/13/5 54/14/5 14/15/5 6/16/5
f 6/17/6 14/18/6 15/19/6 7/20/6
f 7/20/7 15/19/7 16/21/7 8/22/7
f 8/22/8 16/21/8 9/2/8 1/1/8
f 9/2/9 17/23/9 18/24/9 10/3/9
f 10/3/10 18/24/10 19/25/10 11/5/10
f 11/5/11 19/25/11 20/26/11 12/7/11
f 12/7/12 20/26/12 21/27/12 13/28/12
f 13/29/13 21/30/13 22/31/13 14/18/13
f 14/18/14 22/31/14 23/32/14 15/19/14
f 15/19/15 23/32/15 24/33/15 16/21/15
f 16/21/16 24/33/16 17/23/16 9/2/16
f 17/23/17 25/34/17 26/35/17 18/24/17
f 18/24/18 26/35/18 27/36/18 19/25/18
f 19/25/19 27/36/19 28/37/19 20/26/19
f 20/26/20 28/37/20 29/38/20 21/27/20
f 21/30/21 29/39/21 30/40/21 22/31/21
f 22/31/22 30/40/22 31/41/22 23/32/22
f 23/32/23 31/41/23 32/42/23 24/33/23
f 24/33/24 32/42/24 25/34/24 17/23/24
f 25/34/25 33/43/25 34/44/25 26/35/25
f 26/35/26 34/44/26 35/45/26 27/36/26
f 27/36/27 35/45/27 36/46/27 28/37/27
f 28/37/28 36/46/28 37/47/28 29/38/28
f 29/39/29 37/48/29 38/49/29 30/40/29
f 30/40/30 38/49/30 39/50/30 31/41/30
f 31/41/31 39/50/31 40/51/31 32/42/31
f 32/42/32 40/51/32 33/43/32 25/34/32
f 33/43/33 41/52/33 42/53/33 34/44/33
f 34/44/34 42/53/34 43/54/34 35/45/34
f 35/45/35 43/54/35 44/55/35 36/46/35
f 36/46/36 44/55/36 45/56/36 37/47/36
f 37/48/37 45/57/37 46/58/37 38/49/37
f 38/49/38 46/58/38 47/59/38 39/50/38
f 39/50/39 47/59/39 48/60/39 40/51/39
f 40/51/40 48/60/40 41/52/40 33/43/40
f 41/52/41 49/61/41 50/62/41 42/53/41
f 42/53/42 50/62/42 51/63/42 43/54/42
f 43/54/43 51/63/43 52/64/43 44/55/43
f 44/55/44 52/64/44 53/65/44 45/56/44
f 45/57/45 53/66/45 54/67/45 46/58/45
f 46/58/46 54/67/46 55/68/46 47/59/46
f 47/59/47 55/68/47 56/69/47 48/60/47
f 48/60/48 56/69/48 49/61/48 41/52/48
f 49/70/49 57/71/49 58/72/49 50/73/49
f 50/73/3 58/72/3 59/74/3 51/75/3
f 51/75/2 59/74/2 60/76/2 52/77/2
f 61/78/50 62/79/50 6/80/50 5/81/50
f 60/82/51 61/78/51 5/81/51 4/83/51
f 54/84/7 62/85/7 63/86/7 55/87/7
f 55/87/6 63/86/6 64/88/6 56/89/6
f 56/89/52 64/88/52 57/71/52 49/70/52
f 57/71/12 65/90/12 66/91/12 58/72/12
f 58/72/11 66/91/11 67/92/11 59/74/11
f 59/74/10 67/92/10 68/93/10 60/76/10
f 60/76/9 68/93/9 69/94/9 61/95/9
f 61/96/16 69/97/16 70/98/16 62/85/16
f 62/85/15 70/98/15 71/99/15 63/86/15
f 63/86/14 71/99/14 72/100/14 64/88/14
f 64/88/13 72/100/13 65/90/13 57/71/13
f 65/90/20 73/101/20 74/102/20 66/91/20
f 66/91/19 74/102/19 75/103/19 67/92/19
f 67/92/18 75/103/18 76/104/18 68/93/18
f 68/93/17 76/104/17 77/105/17 69/94/17
f 69/97/24 77/106/24 78/107/24 70/98/24
f 70/98/23 78/107/23 79/108/23 71/99/23
f 71/99/22 79/108/22 80/109/22 72/100/22
f 72/100/21 80/109/21 73/101/21 65/90/21
f 73/101/28 81/110/28 82/111/28 74/102/28
f 74/102/27 82/111/27 83/112/27 75/103/27
f 75/103/26 83/112/26 84/113/26 76/104/26
f 76/104/25 84/113/25 85/114/25 77/105/25
f 77/106/32 85/115/32 86/116/32 78/107/32
f 78/107/31 86/116/31 87/117/31 79/108/31
f 79/108/30 87/117/30 88/118/30 80/109/30
f 80/109/29 88/118/29 81/110/29 73/101/29
f 81/110/36 89/119/36 90/120/36 82/111/36
f 82/111/35 90/120/35 91/121/35 83/112/35
f 83/112/34 91/121/34 92/122/34 84/113/34
f 84/113/33 92/122/33 93/123/33 85/114/33
f 85/115/40 93/124/40 94/125/40 86/116/40
f 86/116/39 94/125/39 95/126/39 87/117/39
f 87/117/38 95/126/38 96/127/38 88/118/38
f 88/118/37 96/127/37 89/119/37 81/110/37
f 89/119/44 1/1/44 2/4/44 90/120/44
f 90/120/43 2/4/43 3/6/43 91/121/43
f 91/121/42 3/6/42 4/8/42 92/122/42
f 92/122/41 4/8/41 5/128/41 93/123/41
f 93/124/48 5/129/48 6/17/48 94/125/48
f 94/125/47 6/17/47 7/20/47 95/126/47
f 95/126/46 7/20/46 8/22/46 96/127/46
f 96/127/45 8/22/45 1/1/45 89/119/45
f 53/10/53 52/130/53 12/131/53 13/11/53
f 52/83/54 60/132/54 4/133/54 12/134/54
