# Blender 4.4.3
# www.blender.org
mtllib wheel.mtl
o Wheel
v -0.600000 -0.000000 -1.000000
v 0.600000 0.000000 -1.000000
v -0.600000 -0.500000 -0.866025
v 0.600000 -0.500000 -0.866025
v -0.600000 -0.866025 -0.500000
v 0.600000 -0.866025 -0.500000
v -0.600000 -1.000000 0.000000
v 0.600000 -1.000000 0.000000
v -0.600000 -0.866025 0.500000
v 0.600000 -0.866025 0.500000
v -0.600000 -0.500000 0.866025
v 0.600000 -0.500000 0.866025
v -0.600000 -0.000000 1.000000
v 0.600000 0.000000 1.000000
v -0.600000 0.500000 0.866025
v 0.600000 0.500000 0.866025
v -0.600000 0.866025 0.500000
v 0.600000 0.866025 0.500000
v -0.600000 1.000000 0.000000
v 0.600000 1.000000 0.000000
v -0.600000 0.866025 -0.500000
v 0.600000 0.866025 -0.500000
v -0.600000 0.500000 -0.866025
v 0.600000 0.500000 -0.866025
vn -0.0000 -0.2588 -0.9659
vn -0.0000 -0.7071 -0.7071
vn -0.0000 -0.9659 -0.2588
vn -0.0000 -0.9659 0.2588
vn -0.0000 -0.7071 0.7071
vn -0.0000 -0.2588 0.9659
vn -0.0000 0.2588 0.9659
vn -0.0000 0.7071 0.7071
vn -0.0000 0.9659 0.2588
vn -0.0000 0.9659 -0.2588
vn 1.0000 -0.0000 -0.0000
vn -0.0000 0.7071 -0.7071
vn -0.0000 0.2588 -0.9659
vn -1.0000 -0.0000 -0.0000
vt 1.000000 1.000000
vt 1.000000 1.500000
vt 0.916667 1.500000
vt 0.916667 1.000000
vt 0.833333 1.500000
vt 0.833333 1.000000
vt 0.750000 1.500000
vt 0.750000 1.000000
vt 0.666667 1.500000
vt 0.666667 1.000000
vt 0.583333 1.500000
vt 0.583333 1.000000
vt 0.500000 1.500000
vt 0.500000 1.000000
vt 0.416667 1.500000
vt 0.416667 1.000000
vt 0.333333 1.500000
vt 0.333333 1.000000
vt 0.250000 1.500000
vt 0.250000 1.000000
vt 0.166667 1.500000
vt 0.166667 1.000000
vt 0.740000 0.915692
vt 0.500000 0.980000
vt 0.260000 0.915692
vt 0.084308 0.740000
vt 0.020000 0.500000
vt 0.084308 0.260000
vt 0.260000 0.084308
vt 0.500000 0.020000
vt 0.740000 0.084308
vt 0.915692 0.260000
vt 0.980000 0.500000
vt 0.915692 0.740000
vt 0.083333 1.500000
vt 0.083333 1.000000
vt 0.000000 1.500000
vt 0.000000 1.000000
s 0
f 1/1/1 2/2/1 4/3/1 3/4/1
f 3/4/2 4/3/2 6/5/2 5/6/2
f 5/6/3 6/5/3 8/7/3 7/8/3
f 7/8/4 8/7/4 10/9/4 9/10/4
f 9/10/5 10/9/5 12/11/5 11/12/5
f 11/12/6 12/11/6 14/13/6 13/14/6
f 13/14/7 14/13/7 16/15/7 15/16/7
f 15/16/8 16/15/8 18/17/8 17/18/8
f 17/18/9 18/17/9 20/19/9 19/20/9
f 19/20/10 20/19/10 22/21/10 21/22/10
f 4/23/11 2/24/11 24/25/11 22/26/11 20/27/11 18/28/11 16/29/11 14/30/11 12/31/11 10/32/11 8/33/11 6/34/11
f 21/22/12 22/21/12 24/35/12 23/36/12
f 23/36/13 24/35/13 2/37/13 1/38/13
f 1/24/14 3/23/14 5/34/14 7/33/14 9/32/14 11/31/14 13/30/14 15/29/14 17/28/14 19/27/14 21/26/14 23/25/14
